<svg version="1.2" xmlns="http://www.w3.org/2000/svg" viewBox="0 0 250 250" width="250" height="250">
	<title>invalid</title>
	<style>
		.s0 { fill: #d33936 } 
	</style>
	<path id="Layer" class="s0" d="m217.6 179.6v18c0 11.8-9.7 21.6-21.5 20.8-88.9-5.5-160-76.5-165.5-165.5-0.8-11.8 9-21.5 20.8-21.5h18c10.6 0 19.5 7.9 20.7 18.4l3.1 26.2c0.7 6.4-1.5 12.6-6 17.1l-19.2 19.3c15 29.6 39.1 53.6 68.6 68.6l19.2-19.1c4.5-4.5 10.7-6.7 17.1-6l26.4 3.1c10.5 1.2 18.5 10.1 18.3 20.6z"/>
	<path id="Layer" class="s0" d="m165.5 115.2l-16.5-16.5-16.5 16.5c-1.8 1.8-4.8 1.8-6.6 0-1.8-1.9-1.8-4.8 0-6.6l16.5-16.5-16.5-16.5c-1.8-1.8-1.8-4.8 0-6.6 1.8-1.8 4.8-1.8 6.6 0l16.5 16.5 16.5-16.5c1.8-1.8 4.8-1.8 6.6 0 1.8 1.8 1.8 4.8 0 6.6l-16.5 16.5 16.5 16.5c1.8 1.8 1.8 4.7 0 6.6-1.8 1.8-4.8 1.8-6.6 0z"/>
</svg>